<svg version="1.1" xmlns="http://www.w3.org/2000/svg" xmlns:xlink="http://www.w3.org/1999/xlink" width="485.9777" height="434.28825" viewBox="0,0,485.9777,434.28825"><g transform="translate(5.8917,4.50021)"><g data-paper-data="{&quot;isPaintingLayer&quot;:true}" fill-rule="nonzero" stroke-linejoin="miter" stroke-miterlimit="10" stroke-dasharray="" stroke-dashoffset="0" style="mix-blend-mode: normal"><path d="M-5.8917,-4.50021h485.9777v364.50021h-485.9777z" fill="#c7fb8f" stroke="none" stroke-width="1.00207" stroke-linecap="butt"/><path d="M71.38881,113c0,0 1.33655,-7.70896 2.49632,-7.74135c0.71099,-0.01986 1.0872,7.77727 2.46675,8.85527c0.61465,0.48029 0.40351,-7.98565 1.09029,-7.96513c0.90694,0.0271 1.77009,6.25989 2.72215,7.38241c1.6209,1.91112 1.46105,0.47596 1.55782,1.80213" fill="none" stroke="#3e843d" stroke-width="1.5" stroke-linecap="round"/><path d="M86.38882,113.66667c0,0 1.33655,-7.70896 2.49632,-7.74135c0.71099,-0.01986 1.0872,7.77727 2.46675,8.85527c0.61465,0.48029 0.40351,-7.98565 1.09029,-7.96513c0.90694,0.0271 1.77009,6.25989 2.72215,7.38241c1.6209,1.91112 1.46105,0.47596 1.55782,1.80213" fill="none" stroke="#3e843d" stroke-width="1.5" stroke-linecap="round"/><path d="M61.72215,153c0,0 1.33654,-7.70897 2.49632,-7.74135c0.71099,-0.01986 1.0872,7.77727 2.46676,8.85527c0.61465,0.4803 0.40351,-7.98565 1.09028,-7.96513c0.90694,0.0271 1.77009,6.25989 2.72215,7.38242c1.6209,1.91112 1.46105,0.47596 1.55783,1.80213" fill="none" stroke="#3e843d" stroke-width="1.5" stroke-linecap="round"/><path d="M154.05548,116.66667c0,0 1.33655,-7.70896 2.49632,-7.74135c0.71099,-0.01986 1.0872,7.77727 2.46676,8.85527c0.61465,0.48029 0.40351,-7.98565 1.09028,-7.96513c0.90695,0.0271 1.77009,6.25989 2.72215,7.38241c1.6209,1.91112 1.46105,0.47596 1.55782,1.80213" fill="none" stroke="#3e843d" stroke-width="1.5" stroke-linecap="round"/><g fill="none" stroke="#3e843d" stroke-width="1.5" stroke-linecap="round"><path d="M122.38881,59.72808c0,0 1.33655,-11.42143 2.49632,-11.46941c0.71099,-0.02942 1.0872,11.52263 2.46675,13.11977c0.61465,0.71159 0.40351,-11.83136 1.09028,-11.80096c0.90695,0.04014 1.77009,9.27451 2.72215,10.93762c1.6209,2.83147 1.46105,0.70517 1.55783,2.66999"/><path d="M133.05548,61.20965c0,0 1.33655,-11.42143 2.49632,-11.46941c0.71099,-0.02942 1.0872,11.52263 2.46675,13.11977c0.61465,0.71159 0.40351,-11.83136 1.09028,-11.80096c0.90695,0.04014 1.77009,9.27451 2.72215,10.93762c1.6209,2.83147 1.46105,0.70517 1.55783,2.66999"/></g><g fill="none" stroke="#3e843d" stroke-width="1.5" stroke-linecap="round"><path d="M45.05548,236.06141c0,0 1.88813,-11.42143 3.52655,-11.46941c1.00441,-0.02942 1.53589,11.52263 3.48478,13.11977c0.86832,0.71159 0.57004,-11.83135 1.54024,-11.80095c1.28124,0.04014 2.5006,9.27451 3.84558,10.93762c2.28984,2.83147 2.06402,0.70517 2.20074,2.67"/><path d="M60.12426,237.54298c0,0 1.88814,-11.42143 3.52655,-11.46941c1.00441,-0.02942 1.53589,11.52263 3.48478,13.11977c0.86832,0.71159 0.57004,-11.83135 1.54024,-11.80095c1.28124,0.04014 2.5006,9.27452 3.84558,10.93762c2.28984,2.83147 2.06402,0.70517 2.20074,2.67"/></g><g fill="none" stroke="#3e843d" stroke-width="1.5" stroke-linecap="round"><path d="M108.72215,277.39475c0,0 1.33655,-11.42143 2.49632,-11.46941c0.71099,-0.02941 1.0872,11.52263 2.46676,13.11977c0.61465,0.71159 0.40351,-11.83136 1.09028,-11.80096c0.90695,0.04015 1.77009,9.27452 2.72215,10.93762c1.6209,2.83147 1.46105,0.70517 1.55782,2.66999"/><path d="M119.38881,278.87632c0,0 1.33655,-11.42143 2.49632,-11.4694c0.71099,-0.02942 1.0872,11.52262 2.46676,13.11976c0.61465,0.71159 0.40351,-11.83135 1.09028,-11.80095c0.90695,0.04014 1.77009,9.27452 2.72215,10.93762c1.6209,2.83147 1.46105,0.70517 1.55782,2.66999"/></g><g fill="none" stroke="#3e843d" stroke-width="1.5" stroke-linecap="round"><path d="M190.38882,173.06141c0,0 1.33655,-11.42143 2.49632,-11.46941c0.71099,-0.02942 1.0872,11.52263 2.46676,13.11977c0.61465,0.71159 0.40351,-11.83135 1.09028,-11.80095c0.90695,0.04014 1.77009,9.27451 2.72215,10.93762c1.6209,2.83147 1.46105,0.70517 1.55782,2.67"/><path d="M201.05548,174.54298c0,0 1.33655,-11.42143 2.49632,-11.46941c0.71099,-0.02942 1.0872,11.52263 2.46676,13.11977c0.61465,0.71159 0.40351,-11.83135 1.09028,-11.80095c0.90695,0.04014 1.77009,9.27452 2.72215,10.93762c1.6209,2.83147 1.46105,0.70517 1.55783,2.67"/></g><g fill="none" stroke="#3e843d" stroke-width="1.5" stroke-linecap="round"><path d="M211.38882,115.72808c0,0 1.33655,-11.42143 2.49632,-11.46941c0.71099,-0.02942 1.0872,11.52263 2.46676,13.11976c0.61465,0.71159 0.40351,-11.83135 1.09029,-11.80095c0.90694,0.04014 1.77009,9.27451 2.72215,10.93762c1.6209,2.83147 1.46105,0.70517 1.55782,2.67"/><path d="M222.05548,117.20965c0,0 1.33655,-11.42143 2.49632,-11.46941c0.71099,-0.02942 1.0872,11.52262 2.46675,13.11977c0.61465,0.71159 0.40351,-11.83135 1.09028,-11.80096c0.90695,0.04014 1.77009,9.27452 2.72215,10.93762c1.6209,2.83147 1.46105,0.70517 1.55783,2.67"/></g><g fill="none" stroke="#3e843d" stroke-width="1.5" stroke-linecap="round"><path d="M232.88882,220.72808c0,0 1.33655,-11.42143 2.49632,-11.46941c0.71099,-0.02942 1.0872,11.52263 2.46676,13.11977c0.61465,0.71159 0.40351,-11.83135 1.09029,-11.80095c0.90694,0.04014 1.77009,9.27451 2.72215,10.93762c1.6209,2.83147 1.46105,0.70517 1.55782,2.67"/><path d="M243.55548,222.20965c0,0 1.33655,-11.42143 2.49632,-11.46941c0.71099,-0.02942 1.0872,11.52263 2.46675,13.11977c0.61465,0.71159 0.40351,-11.83135 1.09028,-11.80095c0.90695,0.04014 1.77009,9.27452 2.72215,10.93762c1.6209,2.83147 1.46105,0.70517 1.55783,2.67"/></g><path d="M275.55548,119.16667c0,0 1.33655,-7.70896 2.49632,-7.74135c0.71099,-0.01986 1.0872,7.77727 2.46676,8.85527c0.61465,0.48029 0.40351,-7.98565 1.09028,-7.96513c0.90695,0.0271 1.77009,6.25989 2.72215,7.38241c1.6209,1.91112 1.46105,0.47596 1.55782,1.80213" fill="none" stroke="#3e843d" stroke-width="1.5" stroke-linecap="round"/><path d="M277.55548,256.16666c0,0 1.33655,-7.70896 2.49632,-7.74135c0.71099,-0.01986 1.0872,7.77727 2.46676,8.85527c0.61465,0.4803 0.40351,-7.98565 1.09028,-7.96513c0.90695,0.0271 1.77009,6.25989 2.72215,7.38241c1.6209,1.91112 1.46105,0.47596 1.55782,1.80213" fill="none" stroke="#3e843d" stroke-width="1.5" stroke-linecap="round"/><path d="M200.55548,260.16667c0,0 1.33655,-7.70897 2.49632,-7.74135c0.71099,-0.01986 1.0872,7.77727 2.46676,8.85527c0.61465,0.4803 0.40351,-7.98565 1.09028,-7.96513c0.90695,0.0271 1.77009,6.25989 2.72215,7.38242c1.6209,1.91112 1.46105,0.47596 1.55782,1.80213" fill="none" stroke="#3e843d" stroke-width="1.5" stroke-linecap="round"/><path d="M302.05548,186.66667c0,0 1.33655,-7.70897 2.49632,-7.74135c0.71099,-0.01986 1.0872,7.77727 2.46676,8.85527c0.61465,0.48029 0.40351,-7.98565 1.09028,-7.96513c0.90695,0.0271 1.77009,6.25989 2.72215,7.38242c1.6209,1.91112 1.46105,0.47596 1.55782,1.80213" fill="none" stroke="#3e843d" stroke-width="1.5" stroke-linecap="round"/><g data-paper-data="{&quot;index&quot;:null}" fill="none" stroke="#3e843d" stroke-width="1.5" stroke-linecap="round"><path d="M388.72215,117.18509c0.09678,-1.96482 -0.06307,0.16147 1.55783,-2.66999c0.95206,-1.66311 1.8152,-10.89747 2.72215,-10.93762c0.68678,-0.0304 0.47564,12.51255 1.09028,11.80095c1.37956,-1.59714 1.75576,-13.14918 2.46676,-13.11976c1.15977,0.04798 2.49632,11.46941 2.49632,11.46941"/><path d="M378.05548,118.66667c0.09678,-1.96482 -0.06308,0.16147 1.55782,-2.66999c0.95206,-1.66311 1.81521,-10.89748 2.72215,-10.93762c0.68678,-0.0304 0.47564,12.51255 1.09028,11.80095c1.37955,-1.59714 1.75576,-13.14918 2.46676,-13.11976c1.15977,0.04798 2.49632,11.46941 2.49632,11.46941"/></g><path d="M344.05548,151.5c0.09677,-1.32617 -0.06307,0.10899 1.55783,-1.80213c0.95206,-1.12252 1.8152,-7.35532 2.72215,-7.38242c0.68678,-0.02052 0.47564,8.44543 1.09028,7.96513c1.37955,-1.078 1.75576,-8.87512 2.46675,-8.85527c1.15978,0.03239 2.49632,7.74135 2.49632,7.74135" data-paper-data="{&quot;index&quot;:null}" fill="none" stroke="#3e843d" stroke-width="1.5" stroke-linecap="round"/><path d="M421.05548,155.5c0.09678,-1.32617 -0.06308,0.10899 1.55782,-1.80213c0.95206,-1.12252 1.81521,-7.35532 2.72215,-7.38242c0.68678,-0.02052 0.47564,8.44543 1.09028,7.96513c1.37955,-1.078 1.75576,-8.87512 2.46676,-8.85527c1.15977,0.03239 2.49632,7.74135 2.49632,7.74135" data-paper-data="{&quot;index&quot;:null}" fill="none" stroke="#3e843d" stroke-width="1.5" stroke-linecap="round"/><path d="M319.55548,82c0.09677,-1.32617 -0.06307,0.10899 1.55783,-1.80213c0.95206,-1.12252 1.8152,-7.35532 2.72215,-7.38242c0.68678,-0.02052 0.47564,8.44543 1.09028,7.96513c1.37955,-1.078 1.75576,-8.87512 2.46675,-8.85527c1.15978,0.03239 2.49632,7.74135 2.49632,7.74135" data-paper-data="{&quot;index&quot;:null}" fill="none" stroke="#3e843d" stroke-width="1.5" stroke-linecap="round"/><g data-paper-data="{&quot;index&quot;:null}" fill="none" stroke="#3e843d" stroke-width="1.5" stroke-linecap="round"><path d="M397.72215,244.1851c0.09678,-1.96482 -0.06307,0.16147 1.55783,-2.66999c0.95206,-1.66311 1.8152,-10.89747 2.72215,-10.93762c0.68678,-0.0304 0.47564,12.51255 1.09028,11.80095c1.37956,-1.59714 1.75576,-13.14918 2.46676,-13.11976c1.15977,0.04798 2.49632,11.46941 2.49632,11.46941"/><path d="M387.05548,245.66667c0.09678,-1.96482 -0.06308,0.16147 1.55782,-2.66999c0.95206,-1.66311 1.81521,-10.89748 2.72215,-10.93762c0.68678,-0.0304 0.47564,12.51255 1.09028,11.80095c1.37955,-1.59714 1.75576,-13.14918 2.46676,-13.11976c1.15977,0.04798 2.49632,11.46941 2.49632,11.46941"/></g><path d="M353.05548,278.5c0.09677,-1.32617 -0.06307,0.10899 1.55783,-1.80213c0.95206,-1.12252 1.8152,-7.35532 2.72215,-7.38242c0.68678,-0.02052 0.47564,8.44543 1.09028,7.96513c1.37955,-1.078 1.75576,-8.87512 2.46675,-8.85527c1.15978,0.03239 2.49632,7.74135 2.49632,7.74135" data-paper-data="{&quot;index&quot;:null}" fill="none" stroke="#3e843d" stroke-width="1.5" stroke-linecap="round"/><path d="M430.05548,282.5c0.09678,-1.32617 -0.06308,0.10899 1.55782,-1.80213c0.95206,-1.12252 1.81521,-7.35532 2.72215,-7.38242c0.68678,-0.02052 0.47564,8.44543 1.09028,7.96513c1.37955,-1.078 1.75576,-8.87512 2.46676,-8.85527c1.15977,0.03239 2.49632,7.74135 2.49632,7.74135" data-paper-data="{&quot;index&quot;:null}" fill="none" stroke="#3e843d" stroke-width="1.5" stroke-linecap="round"/><path d="M328.55548,209c0.09677,-1.32617 -0.06307,0.10899 1.55783,-1.80213c0.95206,-1.12252 1.8152,-7.35532 2.72215,-7.38241c0.68678,-0.02052 0.47564,8.44543 1.09028,7.96513c1.37955,-1.078 1.75576,-8.87512 2.46675,-8.85527c1.15978,0.03239 2.49632,7.74135 2.49632,7.74135" data-paper-data="{&quot;index&quot;:null}" fill="none" stroke="#3e843d" stroke-width="1.5" stroke-linecap="round"/><path d="M116.38882,176.66667c0,0 1.33655,-7.70897 2.49632,-7.74135c0.71099,-0.01986 1.0872,7.77727 2.46675,8.85527c0.61465,0.48029 0.40351,-7.98565 1.09029,-7.96513c0.90694,0.0271 1.77009,6.25989 2.72215,7.38242c1.6209,1.91112 1.46105,0.47596 1.55782,1.80213" fill="none" stroke="#3e843d" stroke-width="1.5" stroke-linecap="round"/><g><path d="M87.30077,327.50543c0,-13.38512 0,-46.0353 0,-53.18214c0,-2.7047 1.32262,-5.27029 3.79255,-5.27029c33.14332,0 272.87241,0 295.50637,0c3.37589,0 5.76673,3.37441 5.76673,6.70765c0,7.39448 0,36.59332 0,50.30746c0,4.38491 -2.57902,7.18678 -6.18235,7.18678c-23.21754,0 -260.07558,0 -294.67514,0c-2.73682,0 -4.20815,-2.19573 -4.20815,-5.74941z" fill="#e09900" stroke="#926400" stroke-width="3" stroke-linecap="butt"/><path d="M86.45119,355.48603c0,3.00474 -2.24847,5.44058 -5.02206,5.44058c-2.77362,0 -5.02207,-2.43584 -5.02207,-5.44058c0,-3.00474 2.24847,-5.44057 5.02207,-5.44057c2.77362,0 5.02206,2.43583 5.02206,5.44057z" fill="#006f14" stroke="#006f14" stroke-width="1.5" stroke-linecap="butt"/><path d="M403.59294,355.48603c0,3.00474 -2.24847,5.44058 -5.02206,5.44058c-2.77362,0 -5.02206,-2.43584 -5.02206,-5.44058c0,-3.00474 2.24847,-5.44057 5.02206,-5.44057c2.77362,0 5.02206,2.43583 5.02206,5.44057z" fill="#006f14" stroke="#006f14" stroke-width="1.5" stroke-linecap="butt"/><path d="M226.65066,355.48603c0,3.00474 -2.24847,5.44058 -5.02206,5.44058c-2.77362,0 -5.02206,-2.43584 -5.02206,-5.44058c0,-3.00474 2.24847,-5.44057 5.02206,-5.44057c2.77362,0 5.02206,2.43583 5.02206,5.44057z" fill="#006f14" stroke="#006f14" stroke-width="1.5" stroke-linecap="butt"/><path d="M154.24915,355.48603c0,3.00474 -2.24847,5.44058 -5.02206,5.44058c-2.77362,0 -5.02206,-2.43584 -5.02206,-5.44058c0,-3.00474 2.24847,-5.44057 5.02206,-5.44057c2.77362,0 5.02206,2.43583 5.02206,5.44057z" fill="#006f14" stroke="#006f14" stroke-width="1.5" stroke-linecap="butt"/><path d="M294.44862,355.48603c0,3.00474 -2.24847,5.44058 -5.02206,5.44058c-2.77362,0 -5.02206,-2.43584 -5.02206,-5.44058c0,-3.00474 2.24847,-5.44057 5.02206,-5.44057c2.77362,0 5.02206,2.43583 5.02206,5.44057z" fill="#006f14" stroke="#006f14" stroke-width="1.5" stroke-linecap="butt"/><path d="M403.26017,355.48603c0,3.00474 -2.24847,5.44058 -5.02206,5.44058c-2.77362,0 -5.02206,-2.43584 -5.02206,-5.44058c0,-3.00474 2.24847,-5.44057 5.02206,-5.44057c2.77362,0 5.02206,2.43583 5.02206,5.44057z" fill="#006f14" stroke="#006f14" stroke-width="1.5" stroke-linecap="butt"/><path d="M121.18718,355.48603c0,3.00474 -2.24847,5.44058 -5.02206,5.44058c-2.77362,0 -5.02206,-2.43584 -5.02206,-5.44058c0,-3.00474 2.24847,-5.44057 5.02206,-5.44057c2.77361,0 5.02206,2.43583 5.02206,5.44057z" fill="#006f14" stroke="#006f14" stroke-width="1.5" stroke-linecap="butt"/><path d="M261.38667,355.48603c0,3.00474 -2.24847,5.44058 -5.02207,5.44058c-2.77362,0 -5.02206,-2.43584 -5.02206,-5.44058c0,-3.00474 2.24847,-5.44057 5.02206,-5.44057c2.77361,0 5.02207,2.43583 5.02207,5.44057z" fill="#006f14" stroke="#006f14" stroke-width="1.5" stroke-linecap="butt"/><path d="M369.3612,355.48603c0,3.00474 -2.24847,5.44058 -5.02206,5.44058c-2.77362,0 -5.02206,-2.43584 -5.02206,-5.44058c0,-3.00474 2.24847,-5.44057 5.02206,-5.44057c2.77362,0 5.02206,2.43583 5.02206,5.44057z" fill="#006f14" stroke="#006f14" stroke-width="1.5" stroke-linecap="butt"/><path d="M188.98515,355.48603c0,3.00474 -2.24847,5.44058 -5.02206,5.44058c-2.77362,0 -5.02206,-2.43584 -5.02206,-5.44058c0,-3.00474 2.24847,-5.44057 5.02206,-5.44057c2.77362,0 5.02206,2.43583 5.02206,5.44057z" fill="#006f14" stroke="#006f14" stroke-width="1.5" stroke-linecap="butt"/><path d="M329.18461,355.48603c0,3.00474 -2.24847,5.44058 -5.02206,5.44058c-2.77362,0 -5.02206,-2.43584 -5.02206,-5.44058c0,-3.00474 2.24846,-5.44057 5.02206,-5.44057c2.77362,0 5.02206,2.43583 5.02206,5.44057z" fill="#006f14" stroke="#006f14" stroke-width="1.5" stroke-linecap="butt"/><g fill="none" stroke="#006f14" stroke-width="2.5" stroke-linecap="round"><path d="M397.39193,357.58581h-319.16709"/><path d="M392.25786,356.33029h-314.03301"/></g><path d="M97.89334,322.42564c0,-10.80486 0,-37.16102 0,-42.93017c0,-2.18331 1.23078,-4.25434 3.52918,-4.25434c30.84173,0 253.92294,0 274.98511,0c3.14145,0 5.36628,2.72393 5.36628,5.41462c0,5.96905 0,29.53919 0,40.60961c0,3.53962 -2.39994,5.80137 -5.75303,5.80137c-21.60521,0 -242.01478,0 -274.21159,0c-2.54677,0 -3.91592,-1.77247 -3.91592,-4.6411z" fill="#926400" stroke="none" stroke-width="0" stroke-linecap="butt"/><g data-paper-data="{&quot;index&quot;:null}" fill="none" stroke-width="2.5" stroke-linecap="round"><path d="M85.18651,338.06899h312.20542" stroke="#bf8200"/><path d="M85.18653,339.32449h307.18334" stroke="#e29b00"/></g><g fill="none" stroke-width="2.5" stroke-linecap="round"><path d="M85.1865,350.62414h312.20542" stroke="#bf8200"/><path d="M85.18653,349.36865h307.18334" stroke="#e29b00"/></g><g stroke="#bf8200" stroke-width="1.5"><path d="M77.01738,355.91361v-21.76231h8.64913v21.76231z" fill="#e09900" stroke-linecap="butt"/><path d="M79.52841,346.9085v-7.87944" fill="none" stroke-linecap="round"/><path d="M82.87645,354.03756v-6.75382" fill="none" stroke-linecap="round"/><path d="M86.45119,330.73351c0,3.00474 -2.24847,5.44057 -5.02206,5.44057c-2.77362,0 -5.02207,-2.43583 -5.02207,-5.44057c0,-3.00474 2.24847,-5.44058 5.02207,-5.44058c2.77362,0 5.02206,2.43583 5.02206,5.44058z" fill="#e09900" stroke-linecap="butt"/></g><g stroke="#bf8200" stroke-width="1.5"><path d="M394.15913,355.91361v-21.76231h8.64913v21.76231z" fill="#e09900" stroke-linecap="butt"/><path d="M396.67015,339.02906v7.87944" fill="none" stroke-linecap="round"/><path d="M400.0182,347.28373v6.75382" fill="none" stroke-linecap="round"/><path d="M403.59294,330.73351c0,3.00474 -2.24847,5.44057 -5.02206,5.44057c-2.77362,0 -5.02206,-2.43583 -5.02206,-5.44057c0,-3.00474 2.24847,-5.44058 5.02206,-5.44058c2.77362,0 5.02206,2.43583 5.02206,5.44058z" fill="#e09900" stroke-linecap="butt"/></g><g stroke="#bf8200" stroke-width="1.5"><path d="M77.01738,318.78483v-21.76231h8.64913v21.76231z" fill="#e09900" stroke-linecap="butt"/><path d="M79.52841,309.77972v-7.87944" fill="none" stroke-linecap="round"/><path d="M82.87645,310.15495v6.75382" fill="none" stroke-linecap="round"/><path d="M86.45119,293.60471c0,3.00474 -2.24847,5.44058 -5.02206,5.44058c-2.77362,0 -5.02207,-2.43584 -5.02207,-5.44058c0,-3.00474 2.24847,-5.44057 5.02207,-5.44057c2.77362,0 5.02206,2.43583 5.02206,5.44057z" fill="#e09900" stroke-linecap="butt"/></g><g stroke="#bf8200" stroke-width="1.5"><path d="M394.15913,318.78483v-21.76231h8.64913v21.76231z" fill="#e09900" stroke-linecap="butt"/><path d="M396.67015,309.77972v-7.87944" fill="none" stroke-linecap="round"/><path d="M400.0182,316.90876v-6.75382" fill="none" stroke-linecap="round"/><path d="M403.59294,293.60471c0,3.00474 -2.24847,5.44058 -5.02206,5.44058c-2.77362,0 -5.02206,-2.43584 -5.02206,-5.44058c0,-3.00474 2.24847,-5.44057 5.02206,-5.44057c2.77362,0 5.02206,2.43583 5.02206,5.44057z" fill="#e09900" stroke-linecap="butt"/></g><path d="M79.52841,346.9085v-7.87944" fill="none" stroke="#bf8200" stroke-width="1.5" stroke-linecap="round"/><path d="M396.67015,339.02906v7.87944" fill="none" stroke="#bf8200" stroke-width="1.5" stroke-linecap="round"/><path d="M81.35094,263.069l0.00001,89.7279" fill="none" stroke="#bf8200" stroke-width="5" stroke-linecap="round"/><path d="M398.49269,352.7969v-89.72791" fill="none" stroke="#bf8200" stroke-width="5" stroke-linecap="round"/><g stroke="#bf8200" stroke-width="1.5"><path d="M77.01738,283.20306v-21.76231h8.64913v21.76231z" fill="#e09900" stroke-linecap="butt"/><path d="M79.52841,274.19795v-7.87944" fill="none" stroke-linecap="round"/><path d="M82.87645,281.32699v-6.75382" fill="none" stroke-linecap="round"/><path d="M86.45119,258.02295c0,3.00474 -2.24847,5.44057 -5.02206,5.44057c-2.77362,0 -5.02207,-2.43583 -5.02207,-5.44057c0,-3.00474 2.24847,-5.44058 5.02207,-5.44058c2.77362,0 5.02206,2.43584 5.02206,5.44058z" fill="#e09900" stroke-linecap="butt"/></g><g stroke="#bf8200" stroke-width="1.5"><path d="M394.15913,283.20306v-21.76231h8.64913v21.76231z" fill="#e09900" stroke-linecap="butt"/><path d="M396.67015,274.19794v-7.87944" fill="none" stroke-linecap="round"/><path d="M400.0182,281.32699v-6.75382" fill="none" stroke-linecap="round"/><path d="M403.59294,258.02295c0,3.00474 -2.24847,5.44057 -5.02206,5.44057c-2.77362,0 -5.02206,-2.43583 -5.02206,-5.44057c0,-3.00474 2.24847,-5.44058 5.02206,-5.44058c2.77362,0 5.02206,2.43584 5.02206,5.44058z" fill="#e09900" stroke-linecap="butt"/></g><path d="M77.01738,355.91361v-21.76231h8.64913v21.76231z" fill="#e09900" stroke="#bf8200" stroke-width="1.5" stroke-linecap="butt"/><path d="M394.15913,355.91361v-21.76231h8.64913v21.76231z" fill="#e09900" stroke="#bf8200" stroke-width="1.5" stroke-linecap="butt"/><path d="M77.01738,318.78483v-21.76231h8.64913v21.76231z" fill="#e09900" stroke="#bf8200" stroke-width="1.5" stroke-linecap="butt"/><path d="M394.15913,318.78483v-21.76231h8.64913v21.76231z" fill="#e09900" stroke="#bf8200" stroke-width="1.5" stroke-linecap="butt"/><path d="M77.01738,283.20306v-21.76231h8.64913v21.76231z" fill="#e09900" stroke="#bf8200" stroke-width="1.5" stroke-linecap="butt"/><path d="M394.15913,283.20306v-21.76231h8.64913v21.76231z" fill="#e09900" stroke="#bf8200" stroke-width="1.5" stroke-linecap="butt"/><path d="M79.52841,274.19795v-7.87944" fill="none" stroke="#bf8200" stroke-width="1.5" stroke-linecap="round"/><path d="M396.67015,274.19794v-7.87944" fill="none" stroke="#bf8200" stroke-width="1.5" stroke-linecap="round"/><path d="M82.36462,269.92826v7.87944" fill="none" stroke="#bf8200" stroke-width="1.5" stroke-linecap="round"/><path d="M399.50639,269.92827v7.87944" fill="none" stroke="#bf8200" stroke-width="1.5" stroke-linecap="round"/><path d="M82.87645,354.03756v-6.75382" fill="none" stroke="#bf8200" stroke-width="1.5" stroke-linecap="round"/><path d="M400.0182,347.28373v6.75382" fill="none" stroke="#bf8200" stroke-width="1.5" stroke-linecap="round"/><path d="M86.45119,330.73351c0,3.00474 -2.24847,5.44057 -5.02206,5.44057c-2.77362,0 -5.02207,-2.43583 -5.02207,-5.44057c0,-3.00474 2.24847,-5.44058 5.02207,-5.44058c2.77362,0 5.02206,2.43583 5.02206,5.44058z" fill="#e09900" stroke="#bf8200" stroke-width="1.5" stroke-linecap="butt"/><path d="M403.59294,330.73351c0,3.00474 -2.24847,5.44057 -5.02206,5.44057c-2.77362,0 -5.02206,-2.43583 -5.02206,-5.44057c0,-3.00474 2.24847,-5.44058 5.02206,-5.44058c2.77362,0 5.02206,2.43583 5.02206,5.44058z" fill="#e09900" stroke="#bf8200" stroke-width="1.5" stroke-linecap="butt"/><path d="M86.45119,258.02295c0,3.00474 -2.24847,5.44057 -5.02206,5.44057c-2.77362,0 -5.02207,-2.43583 -5.02207,-5.44057c0,-3.00474 2.24847,-5.44058 5.02207,-5.44058c2.77362,0 5.02206,2.43584 5.02206,5.44058z" fill="#e09900" stroke="#bf8200" stroke-width="1.5" stroke-linecap="butt"/><path d="M403.59294,258.02295c0,3.00474 -2.24847,5.44057 -5.02206,5.44057c-2.77362,0 -5.02206,-2.43583 -5.02206,-5.44057c0,-3.00474 2.24847,-5.44058 5.02206,-5.44058c2.77362,0 5.02206,2.43584 5.02206,5.44058z" fill="#e09900" stroke="#bf8200" stroke-width="1.5" stroke-linecap="butt"/><path d="M217.21686,355.91361v-21.76231h8.64912v21.76231z" fill="#e09900" stroke="#bf8200" stroke-width="1.5" stroke-linecap="butt"/><path d="M219.7279,346.90849v-7.87944" fill="none" stroke="#bf8200" stroke-width="1.5" stroke-linecap="round"/><path d="M223.07593,347.28373v6.75382" fill="none" stroke="#bf8200" stroke-width="1.5" stroke-linecap="round"/><path d="M226.65066,330.73351c0,3.00474 -2.24847,5.44057 -5.02206,5.44057c-2.77362,0 -5.02206,-2.43583 -5.02206,-5.44057c0,-3.00474 2.24847,-5.44058 5.02206,-5.44058c2.77362,0 5.02206,2.43583 5.02206,5.44058z" fill="#e09900" stroke="#bf8200" stroke-width="1.5" stroke-linecap="butt"/><path d="M144.81533,355.91361v-21.76231h8.64912v21.76231z" fill="#e09900" stroke="#bf8200" stroke-width="1.5" stroke-linecap="butt"/><path d="M147.32636,346.90851v-7.87944" fill="none" stroke="#bf8200" stroke-width="1.5" stroke-linecap="round"/><path d="M150.67441,354.03756v-6.75382" fill="none" stroke="#bf8200" stroke-width="1.5" stroke-linecap="round"/><path d="M154.24915,330.73351c0,3.00474 -2.24847,5.44057 -5.02206,5.44057c-2.77362,0 -5.02206,-2.43583 -5.02206,-5.44057c0,-3.00474 2.24847,-5.44058 5.02206,-5.44058c2.77362,0 5.02206,2.43583 5.02206,5.44058z" fill="#e09900" stroke="#bf8200" stroke-width="1.5" stroke-linecap="butt"/><path d="M285.01482,355.91361v-21.76231h8.64912v21.76231z" fill="#e09900" stroke="#bf8200" stroke-width="1.5" stroke-linecap="butt"/><path d="M287.52586,346.9085v-7.87944" fill="none" stroke="#bf8200" stroke-width="1.5" stroke-linecap="round"/><path d="M290.8739,347.28374v6.75382" fill="none" stroke="#bf8200" stroke-width="1.5" stroke-linecap="round"/><path d="M294.44862,330.73351c0,3.00474 -2.24847,5.44057 -5.02206,5.44057c-2.77362,0 -5.02206,-2.43583 -5.02206,-5.44057c0,-3.00474 2.24847,-5.44058 5.02206,-5.44058c2.77362,0 5.02206,2.43583 5.02206,5.44058z" fill="#e09900" stroke="#bf8200" stroke-width="1.5" stroke-linecap="butt"/><path d="M393.82635,355.91361v-21.76231h8.64913v21.76231z" fill="#e09900" stroke="#bf8200" stroke-width="1.5" stroke-linecap="butt"/><path d="M396.33738,339.02907v7.87944" fill="none" stroke="#bf8200" stroke-width="1.5" stroke-linecap="round"/><path d="M399.68544,354.03756v-6.75382" fill="none" stroke="#bf8200" stroke-width="1.5" stroke-linecap="round"/><path d="M403.26017,330.73351c0,3.00474 -2.24847,5.44057 -5.02206,5.44057c-2.77362,0 -5.02206,-2.43583 -5.02206,-5.44057c0,-3.00474 2.24847,-5.44058 5.02206,-5.44058c2.77362,0 5.02206,2.43583 5.02206,5.44058z" fill="#e09900" stroke="#bf8200" stroke-width="1.5" stroke-linecap="butt"/><path d="M111.75337,355.91361v-21.76231h8.64912v21.76231z" fill="#e09900" stroke="#bf8200" stroke-width="1.5" stroke-linecap="butt"/><path d="M114.26439,346.9085v-7.87944" fill="none" stroke="#bf8200" stroke-width="1.5" stroke-linecap="round"/><path d="M117.61245,347.28373v6.75382" fill="none" stroke="#bf8200" stroke-width="1.5" stroke-linecap="round"/><path d="M121.18718,330.73351c0,3.00474 -2.24847,5.44057 -5.02206,5.44057c-2.77362,0 -5.02206,-2.43583 -5.02206,-5.44057c0,-3.00474 2.24847,-5.44058 5.02206,-5.44058c2.77361,0 5.02206,2.43583 5.02206,5.44058z" fill="#e09900" stroke="#bf8200" stroke-width="1.5" stroke-linecap="butt"/><path d="M251.95284,355.91361v-21.76231h8.64913v21.76231z" fill="#e09900" stroke="#bf8200" stroke-width="1.5" stroke-linecap="butt"/><path d="M254.46386,339.02906v7.87944" fill="none" stroke="#bf8200" stroke-width="1.5" stroke-linecap="round"/><path d="M257.81193,354.03756v-6.75382" fill="none" stroke="#bf8200" stroke-width="1.5" stroke-linecap="round"/><path d="M261.38667,330.73351c0,3.00474 -2.24847,5.44057 -5.02207,5.44057c-2.77362,0 -5.02206,-2.43583 -5.02206,-5.44057c0,-3.00474 2.24847,-5.44058 5.02206,-5.44058c2.77361,0 5.02207,2.43583 5.02207,5.44058z" fill="#e09900" stroke="#bf8200" stroke-width="1.5" stroke-linecap="butt"/><path d="M359.92737,355.91361v-21.76231h8.64913v21.76231z" fill="#e09900" stroke="#bf8200" stroke-width="1.5" stroke-linecap="butt"/><path d="M362.4384,346.90851v-7.87944" fill="none" stroke="#bf8200" stroke-width="1.5" stroke-linecap="round"/><path d="M365.78646,347.28373v6.75382" fill="none" stroke="#bf8200" stroke-width="1.5" stroke-linecap="round"/><path d="M369.3612,330.73351c0,3.00474 -2.24847,5.44057 -5.02206,5.44057c-2.77362,0 -5.02206,-2.43583 -5.02206,-5.44057c0,-3.00474 2.24847,-5.44058 5.02206,-5.44058c2.77362,0 5.02206,2.43583 5.02206,5.44058z" fill="#e09900" stroke="#bf8200" stroke-width="1.5" stroke-linecap="butt"/><path d="M179.55131,355.91361v-21.76231h8.64914v21.76231z" fill="#e09900" stroke="#bf8200" stroke-width="1.5" stroke-linecap="butt"/><path d="M182.06236,346.9085v-7.87944" fill="none" stroke="#bf8200" stroke-width="1.5" stroke-linecap="round"/><path d="M185.41039,354.03755v-6.75382" fill="none" stroke="#bf8200" stroke-width="1.5" stroke-linecap="round"/><path d="M188.98515,330.73351c0,3.00474 -2.24847,5.44057 -5.02206,5.44057c-2.77362,0 -5.02206,-2.43583 -5.02206,-5.44057c0,-3.00474 2.24847,-5.44058 5.02206,-5.44058c2.77362,0 5.02206,2.43583 5.02206,5.44058z" fill="#e09900" stroke="#bf8200" stroke-width="1.5" stroke-linecap="butt"/><path d="M319.7508,355.91361v-21.76231h8.64912v21.76231z" fill="#e09900" stroke="#bf8200" stroke-width="1.5" stroke-linecap="butt"/><path d="M322.26184,339.02905v7.87944" fill="none" stroke="#bf8200" stroke-width="1.5" stroke-linecap="round"/><path d="M325.60989,347.28374v6.75382" fill="none" stroke="#bf8200" stroke-width="1.5" stroke-linecap="round"/><path d="M329.18461,330.73351c0,3.00474 -2.24847,5.44057 -5.02206,5.44057c-2.77362,0 -5.02206,-2.43583 -5.02206,-5.44057c0,-3.00474 2.24846,-5.44058 5.02206,-5.44058c2.77362,0 5.02206,2.43583 5.02206,5.44058z" fill="#e09900" stroke="#bf8200" stroke-width="1.5" stroke-linecap="butt"/><path d="M79.52841,309.77972v-7.87944" fill="none" stroke="#bf8200" stroke-width="1.5" stroke-linecap="round"/><path d="M396.67015,309.77972v-7.87944" fill="none" stroke="#bf8200" stroke-width="1.5" stroke-linecap="round"/><path d="M79.52841,345.87716v-7.87944" fill="none" stroke="#bf8200" stroke-width="1.5" stroke-linecap="round"/><path d="M396.67015,337.99771v7.87944" fill="none" stroke="#bf8200" stroke-width="1.5" stroke-linecap="round"/><path d="M86.45119,293.60471c0,3.00474 -2.24847,5.44058 -5.02206,5.44058c-2.77362,0 -5.02207,-2.43584 -5.02207,-5.44058c0,-3.00474 2.24847,-5.44057 5.02207,-5.44057c2.77362,0 5.02206,2.43583 5.02206,5.44057z" fill="#e09900" stroke="#bf8200" stroke-width="1.5" stroke-linecap="butt"/><path d="M403.59294,293.60471c0,3.00474 -2.24847,5.44058 -5.02206,5.44058c-2.77362,0 -5.02206,-2.43584 -5.02206,-5.44058c0,-3.00474 2.24847,-5.44057 5.02206,-5.44057c2.77362,0 5.02206,2.43583 5.02206,5.44057z" fill="#e09900" stroke="#bf8200" stroke-width="1.5" stroke-linecap="butt"/><path d="M82.88032,305.51001v7.87944" fill="none" stroke="#bf8200" stroke-width="1.5" stroke-linecap="round"/><path d="M400.02206,313.38946v-7.87944" fill="none" stroke="#bf8200" stroke-width="1.5" stroke-linecap="round"/><path d="M97.89334,321.43278c0,-9.51474 0,-32.72389 0,-37.80419c0,-1.92261 1.23078,-3.74635 3.52918,-3.74635c30.84173,0 253.92294,0 274.98511,0c3.14145,0 5.36628,2.39868 5.36628,4.76809c0,5.25631 0,26.01211 0,35.7607c0,3.11699 -2.39994,5.10868 -5.75303,5.10868c-21.60521,0 -242.01478,0 -274.21159,0c-2.54677,0 -3.91592,-1.56083 -3.91592,-4.08693z" fill="#bf8200" stroke="none" stroke-width="0" stroke-linecap="butt"/></g><g stroke-linecap="butt"><path d="M99.47623,421.3159c0,-8.45868 0,-24.62053 0,-29.02132c0,-2.17386 1.96719,-4.43381 3.87864,-4.43381c4.19201,0 20.5528,0 27.74365,0c2.1035,0 3.42233,2.49678 3.42233,4.83687c0,4.56493 0,20.80433 0,29.02132c0,2.92764 -1.47136,4.83688 -3.78737,4.83688c-7.4702,0 -23.72781,0 -27.74364,0c-1.75616,0 -3.51359,-2.08373 -3.51359,-5.23996z" fill="#94e300" stroke="#000000" stroke-width="4"/><path d="M135.98402,421.3159c0,-8.45868 0,-24.62053 0,-29.02132c0,-2.17386 1.96719,-4.43381 3.87864,-4.43381c4.19201,0 20.5528,0 27.74365,0c2.1035,0 3.42233,2.49678 3.42233,4.83687c0,4.56493 0,20.80433 0,29.02132c0,2.92764 -1.47136,4.83688 -3.78737,4.83688c-7.47019,0 -23.72782,0 -27.74365,0c-1.75616,0 -3.51359,-2.08373 -3.51359,-5.23996z" fill="#94e300" stroke="#000000" stroke-width="4"/><path d="M172.49183,421.3159c0,-8.45868 0,-24.62053 0,-29.02132c0,-2.17386 1.96719,-4.43381 3.87864,-4.43381c4.19201,0 20.5528,0 27.74364,0c2.1035,0 3.42233,2.49678 3.42233,4.83687c0,4.56493 0,20.80433 0,29.02132c0,2.92764 -1.47136,4.83688 -3.78738,4.83688c-7.47019,0 -23.72781,0 -27.74364,0c-1.75616,0 -3.51359,-2.08373 -3.51359,-5.23996z" fill="#94e300" stroke="#000000" stroke-width="4"/><path d="M208.99962,421.3159c0,-8.45868 0,-24.62053 0,-29.02132c0,-2.17386 1.96719,-4.43381 3.87864,-4.43381c4.19201,0 20.5528,0 27.74364,0c2.1035,0 3.42233,2.49678 3.42233,4.83687c0,4.56493 0,20.80433 0,29.02132c0,2.92764 -1.47136,4.83688 -3.78737,4.83688c-7.47019,0 -23.72781,0 -27.74364,0c-1.75616,0 -3.51359,-2.08373 -3.51359,-5.23996z" fill="#94e300" stroke="#000000" stroke-width="4"/><path d="M245.50742,421.3159c0,-8.45868 0,-24.62053 0,-29.02132c0,-2.17386 1.96719,-4.43381 3.87864,-4.43381c4.19201,0 20.5528,0 27.74365,0c2.1035,0 3.42233,2.49678 3.42233,4.83687c0,4.56493 0,20.80433 0,29.02132c0,2.92764 -1.47136,4.83688 -3.78738,4.83688c-7.47019,0 -23.72781,0 -27.74364,0c-1.75616,0 -3.51358,-2.08373 -3.51358,-5.23996z" fill="#94e300" stroke="#000000" stroke-width="4"/><path d="M282.01521,421.3159c0,-8.45868 0,-24.62053 0,-29.02132c0,-2.17386 1.96719,-4.43381 3.87864,-4.43381c4.19202,0 20.5528,0 27.74364,0c2.1035,0 3.42233,2.49678 3.42233,4.83687c0,4.56493 0,20.80433 0,29.02132c0,2.92764 -1.47136,4.83688 -3.78738,4.83688c-7.47019,0 -23.72781,0 -27.74364,0c-1.75615,0 -3.51359,-2.08373 -3.51359,-5.23996z" fill="#94e300" stroke="#000000" stroke-width="4"/><path d="M318.52301,421.3159c0,-8.45868 0,-24.62053 0,-29.02132c0,-2.17386 1.96719,-4.43381 3.87863,-4.43381c4.19202,0 20.5528,0 27.74365,0c2.1035,0 3.42233,2.49678 3.42233,4.83687c0,4.56493 0,20.80433 0,29.02132c0,2.92764 -1.47136,4.83688 -3.78737,4.83688c-7.47019,0 -23.72782,0 -27.74365,0c-1.75615,0 -3.51358,-2.08373 -3.51358,-5.23996z" fill="#94e300" stroke="#000000" stroke-width="4"/><path d="M100.20631,420.28779c0,-7.34149 0,-21.36876 0,-25.18831c0,-1.88674 1.88523,-3.84822 3.71702,-3.84822c4.01735,0 19.69643,0 26.58765,0c2.01586,0 3.27973,2.16701 3.27973,4.19806c0,3.962 0,18.05657 0,25.18831c0,2.54097 -1.41005,4.19806 -3.62956,4.19806c-7.15893,0 -22.73916,0 -26.58765,0c-1.68297,0 -3.36719,-1.80853 -3.36719,-4.54789z" fill="#b4e35e" stroke="none" stroke-width="0"/><path d="M136.71409,420.28779c0,-7.34149 0,-21.36876 0,-25.18831c0,-1.88674 1.88523,-3.84822 3.71702,-3.84822c4.01736,0 19.69643,0 26.58765,0c2.01586,0 3.27973,2.16701 3.27973,4.19806c0,3.962 0,18.05657 0,25.18831c0,2.54097 -1.41004,4.19806 -3.62956,4.19806c-7.15893,0 -22.73916,0 -26.58766,0c-1.68297,0 -3.36719,-1.80853 -3.36719,-4.54789z" fill="#b4e35e" stroke="none" stroke-width="0"/><path d="M173.2219,420.28779c0,-7.34149 0,-21.36876 0,-25.18831c0,-1.88674 1.88522,-3.84822 3.71702,-3.84822c4.01736,0 19.69644,0 26.58766,0c2.01586,0 3.27973,2.16701 3.27973,4.19806c0,3.962 0,18.05657 0,25.18831c0,2.54097 -1.41004,4.19806 -3.62956,4.19806c-7.15893,0 -22.73916,0 -26.58766,0c-1.68297,0 -3.36719,-1.80853 -3.36719,-4.54789z" fill="#b4e35e" stroke="none" stroke-width="0"/><path d="M209.7297,420.28779c0,-7.34149 0,-21.36876 0,-25.18831c0,-1.88674 1.88522,-3.84822 3.71702,-3.84822c4.01736,0 19.69644,0 26.58766,0c2.01586,0 3.27972,2.16701 3.27972,4.19806c0,3.962 0,18.05657 0,25.18831c0,2.54097 -1.41004,4.19806 -3.62956,4.19806c-7.15893,0 -22.73916,0 -26.58765,0c-1.68297,0 -3.36719,-1.80853 -3.36719,-4.54789z" fill="#b4e35e" stroke="none" stroke-width="0"/><path d="M246.23749,420.28779c0,-7.34149 0,-21.36876 0,-25.18831c0,-1.88674 1.88522,-3.84822 3.71702,-3.84822c4.01736,0 19.69644,0 26.58766,0c2.01586,0 3.27972,2.16701 3.27972,4.19806c0,3.962 0,18.05657 0,25.18831c0,2.54097 -1.41004,4.19806 -3.62956,4.19806c-7.15893,0 -22.73916,0 -26.58766,0c-1.68297,0 -3.36719,-1.80853 -3.36719,-4.54789z" fill="#b4e35e" stroke="none" stroke-width="0"/><path d="M282.74529,420.28779c0,-7.34149 0,-21.36876 0,-25.18831c0,-1.88674 1.88522,-3.84822 3.71702,-3.84822c4.01736,0 19.69644,0 26.58765,0c2.01586,0 3.27973,2.16701 3.27973,4.19806c0,3.962 0,18.05657 0,25.18831c0,2.54097 -1.41005,4.19806 -3.62957,4.19806c-7.15893,0 -22.73916,0 -26.58766,0c-1.68297,0 -3.36719,-1.80853 -3.36719,-4.54789z" fill="#b4e35e" stroke="none" stroke-width="0"/><path d="M319.25308,420.28779c0,-7.34149 0,-21.36876 0,-25.18831c0,-1.88674 1.88522,-3.84822 3.71702,-3.84822c4.01736,0 19.69644,0 26.58765,0c2.01586,0 3.27972,2.16701 3.27972,4.19806c0,3.962 0,18.05657 0,25.18831c0,2.54097 -1.41004,4.19806 -3.62956,4.19806c-7.15893,0 -22.73916,0 -26.58766,0c-1.68297,0 -3.36719,-1.80853 -3.36719,-4.54789z" fill="#b4e35e" stroke="none" stroke-width="0"/><path d="M100.20631,418.72255c0,-7.34149 0,-21.36876 0,-25.18831c0,-1.88674 1.88523,-3.84822 3.71702,-3.84822c4.01735,0 19.69643,0 26.58765,0c2.01586,0 3.27973,2.16701 3.27973,4.19806c0,3.962 0,18.05657 0,25.18831c0,2.54097 -1.41005,4.19806 -3.62956,4.19806c-7.15893,0 -22.73916,0 -26.58765,0c-1.68297,0 -3.36719,-1.80853 -3.36719,-4.54789z" fill="#b5e361" stroke="none" stroke-width="0"/><path d="M136.71409,418.72255c0,-7.34149 0,-21.36876 0,-25.18831c0,-1.88674 1.88523,-3.84822 3.71702,-3.84822c4.01736,0 19.69643,0 26.58765,0c2.01586,0 3.27973,2.16701 3.27973,4.19806c0,3.962 0,18.05657 0,25.18831c0,2.54097 -1.41004,4.19806 -3.62956,4.19806c-7.15893,0 -22.73916,0 -26.58766,0c-1.68297,0 -3.36719,-1.80853 -3.36719,-4.54789z" fill="#b5e361" stroke="none" stroke-width="0"/><path d="M173.2219,418.72255c0,-7.34149 0,-21.36876 0,-25.18831c0,-1.88674 1.88522,-3.84822 3.71702,-3.84822c4.01736,0 19.69644,0 26.58766,0c2.01586,0 3.27973,2.16701 3.27973,4.19806c0,3.962 0,18.05657 0,25.18831c0,2.54097 -1.41004,4.19806 -3.62956,4.19806c-7.15893,0 -22.73916,0 -26.58766,0c-1.68297,0 -3.36719,-1.80853 -3.36719,-4.54789z" fill="#b5e361" stroke="none" stroke-width="0"/><path d="M209.7297,418.72255c0,-7.34149 0,-21.36876 0,-25.18831c0,-1.88674 1.88522,-3.84822 3.71702,-3.84822c4.01736,0 19.69644,0 26.58766,0c2.01586,0 3.27972,2.16701 3.27972,4.19806c0,3.962 0,18.05657 0,25.18831c0,2.54097 -1.41004,4.19806 -3.62956,4.19806c-7.15893,0 -22.73916,0 -26.58765,0c-1.68297,0 -3.36719,-1.80853 -3.36719,-4.54789z" fill="#b5e361" stroke="none" stroke-width="0"/><path d="M246.23749,418.72255c0,-7.34149 0,-21.36876 0,-25.18831c0,-1.88674 1.88522,-3.84822 3.71702,-3.84822c4.01736,0 19.69644,0 26.58766,0c2.01586,0 3.27972,2.16701 3.27972,4.19806c0,3.962 0,18.05657 0,25.18831c0,2.54097 -1.41004,4.19806 -3.62956,4.19806c-7.15893,0 -22.73916,0 -26.58766,0c-1.68297,0 -3.36719,-1.80853 -3.36719,-4.54789z" fill="#b5e361" stroke="none" stroke-width="0"/><path d="M282.74529,418.72255c0,-7.34149 0,-21.36876 0,-25.18831c0,-1.88674 1.88522,-3.84822 3.71702,-3.84822c4.01736,0 19.69644,0 26.58765,0c2.01586,0 3.27973,2.16701 3.27973,4.19806c0,3.962 0,18.05657 0,25.18831c0,2.54097 -1.41005,4.19806 -3.62957,4.19806c-7.15893,0 -22.73916,0 -26.58766,0c-1.68297,0 -3.36719,-1.80853 -3.36719,-4.54789z" fill="#b5e361" stroke="none" stroke-width="0"/><path d="M319.25308,418.72255c0,-7.34149 0,-21.36876 0,-25.18831c0,-1.88674 1.88522,-3.84822 3.71702,-3.84822c4.01736,0 19.69644,0 26.58765,0c2.01586,0 3.27972,2.16701 3.27972,4.19806c0,3.962 0,18.05657 0,25.18831c0,2.54097 -1.41004,4.19806 -3.62956,4.19806c-7.15893,0 -22.73916,0 -26.58766,0c-1.68297,0 -3.36719,-1.80853 -3.36719,-4.54789z" fill="#b5e361" stroke="none" stroke-width="0"/><path d="M100.20631,417.87076c0,-7.34149 0,-21.36876 0,-25.18831c0,-1.88674 1.88523,-3.84821 3.71702,-3.84821c4.01735,0 19.69643,0 26.58765,0c2.01586,0 3.27973,2.16701 3.27973,4.19806c0,3.962 0,18.05657 0,25.18831c0,2.54097 -1.41005,4.19806 -3.62956,4.19806c-7.15893,0 -22.73916,0 -26.58765,0c-1.68297,0 -3.36719,-1.80853 -3.36719,-4.54789z" fill="#b7e367" stroke="none" stroke-width="0"/><path d="M136.71409,417.87076c0,-7.34149 0,-21.36876 0,-25.18831c0,-1.88674 1.88523,-3.84821 3.71702,-3.84821c4.01736,0 19.69643,0 26.58765,0c2.01586,0 3.27973,2.16701 3.27973,4.19806c0,3.962 0,18.05657 0,25.18831c0,2.54097 -1.41004,4.19806 -3.62956,4.19806c-7.15893,0 -22.73916,0 -26.58766,0c-1.68297,0 -3.36719,-1.80853 -3.36719,-4.54789z" fill="#b7e367" stroke="none" stroke-width="0"/><path d="M173.2219,417.87076c0,-7.34149 0,-21.36876 0,-25.18831c0,-1.88674 1.88522,-3.84821 3.71702,-3.84821c4.01736,0 19.69644,0 26.58766,0c2.01586,0 3.27973,2.16701 3.27973,4.19806c0,3.962 0,18.05657 0,25.18831c0,2.54097 -1.41004,4.19806 -3.62956,4.19806c-7.15893,0 -22.73916,0 -26.58766,0c-1.68297,0 -3.36719,-1.80853 -3.36719,-4.54789z" fill="#b7e367" stroke="none" stroke-width="0"/><path d="M209.7297,417.87076c0,-7.34149 0,-21.36876 0,-25.18831c0,-1.88674 1.88522,-3.84821 3.71702,-3.84821c4.01736,0 19.69644,0 26.58766,0c2.01586,0 3.27972,2.16701 3.27972,4.19806c0,3.962 0,18.05657 0,25.18831c0,2.54097 -1.41004,4.19806 -3.62956,4.19806c-7.15893,0 -22.73916,0 -26.58765,0c-1.68297,0 -3.36719,-1.80853 -3.36719,-4.54789z" fill="#b7e367" stroke="none" stroke-width="0"/><path d="M246.23749,417.87076c0,-7.34149 0,-21.36876 0,-25.18831c0,-1.88674 1.88522,-3.84821 3.71702,-3.84821c4.01736,0 19.69644,0 26.58766,0c2.01586,0 3.27972,2.16701 3.27972,4.19806c0,3.962 0,18.05657 0,25.18831c0,2.54097 -1.41004,4.19806 -3.62956,4.19806c-7.15893,0 -22.73916,0 -26.58766,0c-1.68297,0 -3.36719,-1.80853 -3.36719,-4.54789z" fill="#b7e367" stroke="none" stroke-width="0"/><path d="M282.74529,417.87076c0,-7.34149 0,-21.36876 0,-25.18831c0,-1.88674 1.88522,-3.84821 3.71702,-3.84821c4.01736,0 19.69644,0 26.58765,0c2.01586,0 3.27973,2.16701 3.27973,4.19806c0,3.962 0,18.05657 0,25.18831c0,2.54097 -1.41005,4.19806 -3.62957,4.19806c-7.15893,0 -22.73916,0 -26.58766,0c-1.68297,0 -3.36719,-1.80853 -3.36719,-4.54789z" fill="#b7e367" stroke="none" stroke-width="0"/><path d="M319.25308,417.87076c0,-7.34149 0,-21.36876 0,-25.18831c0,-1.88674 1.88522,-3.84821 3.71702,-3.84821c4.01736,0 19.69644,0 26.58765,0c2.01586,0 3.27972,2.16701 3.27972,4.19806c0,3.962 0,18.05657 0,25.18831c0,2.54097 -1.41004,4.19806 -3.62956,4.19806c-7.15893,0 -22.73916,0 -26.58766,0c-1.68297,0 -3.36719,-1.80853 -3.36719,-4.54789z" fill="#b7e367" stroke="none" stroke-width="0"/><path d="M100.20631,417.26235c0,-7.34149 0,-21.36876 0,-25.18831c0,-1.88674 1.88523,-3.84822 3.71702,-3.84822c4.01735,0 19.69643,0 26.58765,0c2.01586,0 3.27973,2.16701 3.27973,4.19806c0,3.962 0,18.05657 0,25.18831c0,2.54097 -1.41005,4.19806 -3.62956,4.19806c-7.15893,0 -22.73916,0 -26.58765,0c-1.68297,0 -3.36719,-1.80853 -3.36719,-4.54789z" fill="#cfe4a9" stroke="none" stroke-width="0"/><path d="M136.71409,417.26235c0,-7.34149 0,-21.36876 0,-25.18831c0,-1.88674 1.88523,-3.84822 3.71702,-3.84822c4.01736,0 19.69643,0 26.58765,0c2.01586,0 3.27973,2.16701 3.27973,4.19806c0,3.962 0,18.05657 0,25.18831c0,2.54097 -1.41004,4.19806 -3.62956,4.19806c-7.15893,0 -22.73916,0 -26.58766,0c-1.68297,0 -3.36719,-1.80853 -3.36719,-4.54789z" fill="#cfe4a9" stroke="none" stroke-width="0"/><path d="M173.2219,417.26235c0,-7.34149 0,-21.36876 0,-25.18831c0,-1.88674 1.88522,-3.84822 3.71702,-3.84822c4.01736,0 19.69644,0 26.58766,0c2.01586,0 3.27973,2.16701 3.27973,4.19806c0,3.962 0,18.05657 0,25.18831c0,2.54097 -1.41004,4.19806 -3.62956,4.19806c-7.15893,0 -22.73916,0 -26.58766,0c-1.68297,0 -3.36719,-1.80853 -3.36719,-4.54789z" fill="#cfe4a9" stroke="none" stroke-width="0"/><path d="M209.7297,417.26235c0,-7.34149 0,-21.36876 0,-25.18831c0,-1.88674 1.88522,-3.84822 3.71702,-3.84822c4.01736,0 19.69644,0 26.58766,0c2.01586,0 3.27972,2.16701 3.27972,4.19806c0,3.962 0,18.05657 0,25.18831c0,2.54097 -1.41004,4.19806 -3.62956,4.19806c-7.15893,0 -22.73916,0 -26.58765,0c-1.68297,0 -3.36719,-1.80853 -3.36719,-4.54789z" fill="#cfe4a9" stroke="none" stroke-width="0"/><path d="M246.23749,417.26235c0,-7.34149 0,-21.36876 0,-25.18831c0,-1.88674 1.88522,-3.84822 3.71702,-3.84822c4.01736,0 19.69644,0 26.58766,0c2.01586,0 3.27972,2.16701 3.27972,4.19806c0,3.962 0,18.05657 0,25.18831c0,2.54097 -1.41004,4.19806 -3.62956,4.19806c-7.15893,0 -22.73916,0 -26.58766,0c-1.68297,0 -3.36719,-1.80853 -3.36719,-4.54789z" fill="#cfe4a9" stroke="none" stroke-width="0"/><path d="M282.74529,417.26235c0,-7.34149 0,-21.36876 0,-25.18831c0,-1.88674 1.88522,-3.84822 3.71702,-3.84822c4.01736,0 19.69644,0 26.58765,0c2.01586,0 3.27973,2.16701 3.27973,4.19806c0,3.962 0,18.05657 0,25.18831c0,2.54097 -1.41005,4.19806 -3.62957,4.19806c-7.15893,0 -22.73916,0 -26.58766,0c-1.68297,0 -3.36719,-1.80853 -3.36719,-4.54789z" fill="#cfe4a9" stroke="none" stroke-width="0"/><path d="M319.25308,417.26235c0,-7.34149 0,-21.36876 0,-25.18831c0,-1.88674 1.88522,-3.84822 3.71702,-3.84822c4.01736,0 19.69644,0 26.58765,0c2.01586,0 3.27972,2.16701 3.27972,4.19806c0,3.962 0,18.05657 0,25.18831c0,2.54097 -1.41004,4.19806 -3.62956,4.19806c-7.15893,0 -22.73916,0 -26.58766,0c-1.68297,0 -3.36719,-1.80853 -3.36719,-4.54789z" fill="#cfe4a9" stroke="none" stroke-width="0"/><g><path d="M124.47917,417.2986c-2.08364,1.25837 -8.20551,-5.24598 -8.20551,-5.24598c0,0 -7.1335,5.38164 -8.97534,3.78818c-1.84342,-1.59337 2.45304,-9.42798 2.45304,-9.42798c0,0 -7.32144,-5.12175 -6.37524,-7.36554c0.94621,-2.2455 9.72379,-0.58017 9.72379,-0.58017c0,0 2.60664,-8.54548 5.03348,-8.34118c2.43014,0.20589 3.55938,9.07007 3.55938,9.07007c0,0 8.93285,-0.16179 9.48521,2.21111c0.55728,2.37131 -7.52409,6.18565 -7.52409,6.18565c0,0 2.91387,8.44745 0.82527,9.70583z" fill="#ffff00" stroke="#000000" stroke-width="1.28786"/><path d="M120.42133,411.09988c-1.04918,0.63245 -4.12649,-2.63768 -4.12649,-2.63768c0,0 -3.58389,2.70467 -4.5089,1.9039c-0.92495,-0.80077 1.23223,-4.73604 1.23223,-4.73604c0,0 -3.67703,-2.57563 -3.20313,-3.70157c0.47561,-1.12766 4.88476,-0.29091 4.88476,-0.29091c0,0 1.31072,-4.29482 2.53147,-4.19019c1.21916,0.10291 1.7846,4.55629 1.7846,4.55629c0,0 4.49094,-0.08014 4.76872,1.11124c0.28114,1.19302 -3.77834,3.10833 -3.77834,3.10833c0,0 1.46102,4.24419 0.41508,4.87664z" fill="#ffffff" stroke="none" stroke-width="2.57572"/></g><g><path d="M160.98697,417.2986c-2.08363,1.25837 -8.20552,-5.24598 -8.20552,-5.24598c0,0 -7.13351,5.38164 -8.97534,3.78818c-1.84342,-1.59337 2.45304,-9.42798 2.45304,-9.42798c0,0 -7.32143,-5.12175 -6.37523,-7.36554c0.94621,-2.2455 9.72378,-0.58017 9.72378,-0.58017c0,0 2.60664,-8.54548 5.03348,-8.34118c2.43015,0.20589 3.55939,9.07007 3.55939,9.07007c0,0 8.93284,-0.16179 9.48521,2.21111c0.55728,2.37131 -7.52409,6.18565 -7.52409,6.18565c0,0 2.91387,8.44745 0.82527,9.70583z" fill="#ffff00" stroke="#000000" stroke-width="1.28786"/><path d="M156.92912,411.09988c-1.04918,0.63245 -4.12649,-2.63768 -4.12649,-2.63768c0,0 -3.58389,2.70467 -4.50889,1.9039c-0.92495,-0.80077 1.23222,-4.73604 1.23222,-4.73604c0,0 -3.67702,-2.57563 -3.20312,-3.70157c0.47561,-1.12766 4.88476,-0.29091 4.88476,-0.29091c0,0 1.31071,-4.29482 2.53147,-4.19019c1.21916,0.10291 1.7846,4.55629 1.7846,4.55629c0,0 4.49095,-0.08014 4.76872,1.11124c0.28115,1.19302 -3.77835,3.10833 -3.77835,3.10833c0,0 1.46103,4.24419 0.41509,4.87664z" fill="#ffffff" stroke="none" stroke-width="2.57572"/></g><g><path d="M197.49476,417.2986c-2.08363,1.25837 -8.20551,-5.24598 -8.20551,-5.24598c0,0 -7.13351,5.38164 -8.97534,3.78818c-1.84342,-1.59337 2.45304,-9.42798 2.45304,-9.42798c0,0 -7.32144,-5.12175 -6.37524,-7.36554c0.94621,-2.2455 9.72379,-0.58017 9.72379,-0.58017c0,0 2.60664,-8.54548 5.03348,-8.34118c2.43015,0.20589 3.55939,9.07007 3.55939,9.07007c0,0 8.93284,-0.16179 9.48521,2.21111c0.55728,2.37131 -7.52409,6.18565 -7.52409,6.18565c0,0 2.91387,8.44745 0.82527,9.70583z" fill="#ffff00" stroke="#000000" stroke-width="1.28786"/><path d="M193.43693,411.09988c-1.04918,0.63245 -4.12649,-2.63768 -4.12649,-2.63768c0,0 -3.58389,2.70467 -4.5089,1.9039c-0.92495,-0.80077 1.23222,-4.73604 1.23222,-4.73604c0,0 -3.67702,-2.57563 -3.20313,-3.70157c0.47561,-1.12766 4.88476,-0.29091 4.88476,-0.29091c0,0 1.31072,-4.29482 2.53147,-4.19019c1.21916,0.10291 1.78461,4.55629 1.78461,4.55629c0,0 4.49094,-0.08014 4.76871,1.11124c0.28115,1.19302 -3.77835,3.10833 -3.77835,3.10833c0,0 1.46103,4.24419 0.41509,4.87664z" fill="#ffffff" stroke="none" stroke-width="2.57572"/></g><g><path d="M234.00257,417.2986c-2.08363,1.25837 -8.20551,-5.24598 -8.20551,-5.24598c0,0 -7.13351,5.38164 -8.97534,3.78818c-1.84342,-1.59337 2.45303,-9.42798 2.45303,-9.42798c0,0 -7.32143,-5.12175 -6.37523,-7.36554c0.94621,-2.2455 9.72378,-0.58017 9.72378,-0.58017c0,0 2.60665,-8.54548 5.03349,-8.34118c2.43015,0.20589 3.55938,9.07007 3.55938,9.07007c0,0 8.93285,-0.16179 9.48522,2.21111c0.55728,2.37131 -7.52409,6.18565 -7.52409,6.18565c0,0 2.91387,8.44745 0.82527,9.70583z" fill="#ffff00" stroke="#000000" stroke-width="1.28786"/><path d="M229.94473,411.09988c-1.04918,0.63245 -4.12649,-2.63768 -4.12649,-2.63768c0,0 -3.58389,2.70467 -4.5089,1.9039c-0.92495,-0.80077 1.23223,-4.73604 1.23223,-4.73604c0,0 -3.67702,-2.57563 -3.20313,-3.70157c0.47561,-1.12766 4.88476,-0.29091 4.88476,-0.29091c0,0 1.31071,-4.29482 2.53147,-4.19019c1.21916,0.10291 1.7846,4.55629 1.7846,4.55629c0,0 4.49095,-0.08014 4.76872,1.11124c0.28115,1.19302 -3.77835,3.10833 -3.77835,3.10833c0,0 1.46103,4.24419 0.41509,4.87664z" fill="#ffffff" stroke="none" stroke-width="2.57572"/></g><g><path d="M270.51035,417.2986c-2.08364,1.25837 -8.20551,-5.24598 -8.20551,-5.24598c0,0 -7.13351,5.38164 -8.97534,3.78818c-1.84342,-1.59337 2.45304,-9.42798 2.45304,-9.42798c0,0 -7.32144,-5.12175 -6.37524,-7.36554c0.94621,-2.2455 9.72378,-0.58017 9.72378,-0.58017c0,0 2.60664,-8.54548 5.03348,-8.34118c2.43014,0.20589 3.55939,9.07007 3.55939,9.07007c0,0 8.93284,-0.16179 9.48521,2.21111c0.55728,2.37131 -7.52409,6.18565 -7.52409,6.18565c0,0 2.91386,8.44745 0.82527,9.70583z" fill="#ffff00" stroke="#000000" stroke-width="1.28786"/><path d="M266.45252,411.09988c-1.04919,0.63245 -4.12649,-2.63768 -4.12649,-2.63768c0,0 -3.58389,2.70467 -4.50889,1.9039c-0.92495,-0.80077 1.23222,-4.73604 1.23222,-4.73604c0,0 -3.67702,-2.57563 -3.20312,-3.70157c0.47561,-1.12766 4.88476,-0.29091 4.88476,-0.29091c0,0 1.31071,-4.29482 2.53146,-4.19019c1.21916,0.10291 1.78461,4.55629 1.78461,4.55629c0,0 4.49095,-0.08014 4.76871,1.11124c0.28114,1.19302 -3.77835,3.10833 -3.77835,3.10833c0,0 1.46102,4.24419 0.41508,4.87664z" fill="#ffffff" stroke="none" stroke-width="2.57572"/></g><g><path d="M307.01814,417.2986c-2.08364,1.25837 -8.20551,-5.24598 -8.20551,-5.24598c0,0 -7.13351,5.38164 -8.97534,3.78818c-1.84343,-1.59337 2.45304,-9.42798 2.45304,-9.42798c0,0 -7.32144,-5.12175 -6.37524,-7.36554c0.94621,-2.2455 9.72379,-0.58017 9.72379,-0.58017c0,0 2.60664,-8.54548 5.03348,-8.34118c2.43014,0.20589 3.55939,9.07007 3.55939,9.07007c0,0 8.93284,-0.16179 9.48521,2.21111c0.55728,2.37131 -7.52409,6.18565 -7.52409,6.18565c0,0 2.91387,8.44745 0.82527,9.70583z" fill="#ffff00" stroke="#000000" stroke-width="1.28786"/><path d="M302.96031,411.09988c-1.04919,0.63245 -4.12649,-2.63768 -4.12649,-2.63768c0,0 -3.58389,2.70467 -4.50889,1.9039c-0.92495,-0.80077 1.23222,-4.73604 1.23222,-4.73604c0,0 -3.67703,-2.57563 -3.20313,-3.70157c0.4756,-1.12766 4.88476,-0.29091 4.88476,-0.29091c0,0 1.31071,-4.29482 2.53147,-4.19019c1.21916,0.10291 1.78461,4.55629 1.78461,4.55629c0,0 4.49094,-0.08014 4.76871,1.11124c0.28114,1.19302 -3.77835,3.10833 -3.77835,3.10833c0,0 1.46102,4.24419 0.41508,4.87664z" fill="#ffffff" stroke="none" stroke-width="2.57572"/></g><g><path d="M343.52594,417.2986c-2.08364,1.25837 -8.20552,-5.24598 -8.20552,-5.24598c0,0 -7.13351,5.38164 -8.97534,3.78818c-1.84343,-1.59337 2.45304,-9.42798 2.45304,-9.42798c0,0 -7.32143,-5.12175 -6.37523,-7.36554c0.94621,-2.2455 9.72378,-0.58017 9.72378,-0.58017c0,0 2.60665,-8.54548 5.03349,-8.34118c2.43014,0.20589 3.55938,9.07007 3.55938,9.07007c0,0 8.93284,-0.16179 9.48521,2.21111c0.55728,2.37131 -7.52409,6.18565 -7.52409,6.18565c0,0 2.91387,8.44745 0.82527,9.70583z" fill="#ffff00" stroke="#000000" stroke-width="1.28786"/><path d="M339.46811,411.09988c-1.04919,0.63245 -4.12649,-2.63768 -4.12649,-2.63768c0,0 -3.58389,2.70467 -4.5089,1.9039c-0.92495,-0.80077 1.23223,-4.73604 1.23223,-4.73604c0,0 -3.67703,-2.57563 -3.20313,-3.70157c0.4756,-1.12766 4.88476,-0.29091 4.88476,-0.29091c0,0 1.31072,-4.29482 2.53147,-4.19019c1.21916,0.10291 1.7846,4.55629 1.7846,4.55629c0,0 4.49095,-0.08014 4.76871,1.11124c0.28114,1.19302 -3.77835,3.10833 -3.77835,3.10833c0,0 1.46102,4.24419 0.41508,4.87664z" fill="#ffffff" stroke="none" stroke-width="2.57572"/></g></g><path d="M165.09715,313.02782c0,-1.38071 1.11929,-2.5 2.5,-2.5c1.38071,0 2.5,1.11929 2.5,2.5c0,1.38071 -1.11929,2.5 -2.5,2.5c-1.38071,0 -2.5,-1.11929 -2.5,-2.5z" fill="#d6ff00" stroke="none" stroke-width="0.5" stroke-linecap="butt"/></g></g></svg>